<?xml version="1.0" encoding="UTF-8"?>
<svg id="Layer_2" data-name="Layer 2" xmlns="http://www.w3.org/2000/svg" viewBox="0 0 111.2 111.12">
  <defs>
    <style>
      .cls-1 {
        fill: #fff;
      }
    </style>
  </defs>
  <g id="Objects">
    <g>
      <path class="cls-1" d="M63.74,14.79c1.88,2.64,3.4,5.55,4.49,8.67,1.36.18,2.71.43,4.02.74.22.05.44.11.66.16.05.01.11.03.16.04.28.07.56.15.84.23,0,0,0,0,.01,0,.27.07.54.15.8.24.23.07.46.14.69.22.24.08.47.16.71.24.22.07.44.15.66.24.22.08.43.16.65.25,1.27.49,2.51,1.05,3.71,1.67.29.15.57.29.85.45.48.26.95.53,1.42.81.2.12.4.24.59.36.09.05.19.11.28.17.21.13.42.27.62.41.2.13.4.26.59.4,2.3,1.57,4.42,3.39,6.34,5.4.23.23.44.46.65.7.18.19.35.39.52.58.28.32.55.64.82.97.17.19.32.39.48.59.21.27.42.54.62.81.19.26.38.52.56.78.19.26.37.52.55.79.36.53.7,1.06,1.03,1.61.17.27.33.55.49.83.16.28.32.56.47.84.33.61.65,1.23.94,1.85.12.25.24.5.35.75.11.25.22.5.33.75.1.22.19.44.28.67.08.21.17.41.25.62.2.52.4,1.05.57,1.58.11.31.21.62.3.93,0,0,0,.02.01.04.09.3.18.6.26.9.25.86.46,1.73.65,2.61.05.22.09.45.14.67.02.13.05.26.07.38.03.17.06.34.09.52.04.25.08.49.12.74.04.25.08.5.11.75.01.11.03.22.04.33.02.18.04.37.06.55.02.18.04.35.05.53.03.27.05.54.07.81.02.32.04.64.06.96.02.34.03.68.04,1.02,0,.34.01.68.01,1.02,0,21.96-17.87,39.83-39.83,39.83-.34,0-.69,0-1.03-.01-.34,0-.68-.02-1.02-.04-.33-.01-.67-.03-1-.06h-.04c-.31-.02-.62-.05-.93-.08-.27-.03-.53-.06-.8-.09-.17-.02-.33-.04-.5-.06-.24-.03-.47-.06-.7-.1-.02,0-.04,0-.06,0-.24-.03-.47-.07-.7-.11-.2-.03-.4-.07-.59-.11-.29-.05-.58-.11-.86-.17-1.55-.33-3.08-.75-4.57-1.26-.29-.1-.58-.2-.87-.31-.28-.1-.56-.21-.85-.32-.38-.15-.76-.31-1.14-.47-.24-.1-.48-.2-.71-.31-.25-.11-.51-.24-.77-.36-.32-.16-.65-.31-.97-.48-.26-.14-.53-.27-.79-.42-.3-.17-.6-.33-.9-.51-.28-.16-.55-.32-.83-.49,0,0-.01,0-.02,0-.51-.3-1-.62-1.49-.95-.04-.02-.08-.05-.11-.08-.26-.18-.52-.36-.78-.54-.26-.18-.52-.37-.77-.56-.26-.19-.51-.38-.76-.58-.21-.16-.41-.32-.61-.49-.32-.26-.64-.53-.96-.8-.21-.18-.42-.37-.62-.55h0c-.24-.22-.47-.43-.7-.66-.23-.22-.46-.44-.69-.67-.44-.44-.87-.89-1.29-1.35-.22-.25-.45-.5-.66-.75-.42-.48-.82-.96-1.21-1.46-.24-.3-.47-.61-.7-.92-.14-.18-.27-.36-.4-.55-.04-.06-.09-.12-.13-.18-.16-.23-.32-.46-.48-.69-.16-.23-.3-.45-.45-.68-.21-.32-.42-.65-.62-.98-.32-.53-.63-1.07-.93-1.62-.58-1.05-1.1-2.14-1.58-3.26-.11-.26-.22-.51-.32-.77,0,0,0-.02-.01-.04-.08-.2-.16-.39-.23-.58-.07-.18-.14-.36-.21-.54-.07-.19-.14-.38-.2-.57-.1-.27-.19-.54-.28-.81-.09-.27-.18-.55-.26-.83-.01-.02-.02-.05-.02-.08-.08-.26-.16-.54-.24-.81-.08-.29-.16-.58-.24-.87-.22-.88-.42-1.77-.58-2.66-.05-.3-.1-.6-.15-.9-.05-.3-.09-.6-.13-.91-3.12-1.08-6.04-2.6-8.69-4.47.45,26.21,21.84,47.32,48.16,47.32s48.17-21.56,48.17-48.17S90.01,15.17,63.74,14.79ZM23.38,59.18c.03-.29.06-.59.09-.88.03-.29.07-.59.11-.88.04-.29.08-.58.13-.87.04-.29.1-.58.15-.86.22-1.15.48-2.29.79-3.4.07-.27.16-.55.24-.83h0c.06-.22.13-.43.2-.65.02-.09.05-.19.09-.27.08-.24.16-.48.25-.72.07-.21.14-.42.23-.63.05-.13.1-.26.15-.39.18-.47.36-.92.55-1.38.23-.53.46-1.06.72-1.58.12-.25.24-.5.36-.74.07-.16.16-.31.24-.47.09-.19.19-.37.29-.55.03-.06.07-.13.11-.19.13-.25.27-.49.41-.74.13-.22.26-.44.38-.66.12-.19.23-.38.35-.56.11-.17.22-.34.33-.52.46-.71.94-1.41,1.44-2.08.17-.23.34-.45.51-.68.13-.17.26-.34.4-.51.4-.5.81-1,1.24-1.48.17-.2.35-.4.53-.59.38-.42.77-.82,1.17-1.22.16-.16.32-.32.49-.48.26-.25.51-.5.77-.73.19-.18.38-.35.58-.52.35-.31.71-.61,1.06-.91.18-.15.37-.3.55-.45.8-.64,1.63-1.25,2.48-1.82.24-.17.49-.33.74-.49.2-.13.39-.25.59-.37.15-.09.3-.19.45-.27.22-.14.44-.27.67-.39.28-.17.56-.32.84-.47.28-.16.57-.31.85-.45.28-.15.57-.29.86-.43.02,0,.03-.01.05-.02.51-.25,1.03-.48,1.55-.71.39-.17.78-.33,1.18-.48.26-.11.52-.21.79-.3.23-.09.47-.17.7-.25.12-.04.24-.08.36-.13.26-.08.52-.17.78-.25.31-.1.62-.19.94-.28.31-.09.63-.18.95-.26.28-.07.56-.14.84-.21.21-.05.43-.1.64-.14.09-.02.19-.04.28-.06.16-.03.32-.06.49-.1.28-.05.57-.11.85-.16.21-.03.41-.07.61-.1.22-.04.43-.07.65-.1.56-.08,1.12-.15,1.69-.2-1.4-2.85-3.31-5.42-5.59-7.6-19.04,3.81-34.03,18.83-37.77,37.89,2.18,2.28,4.75,4.17,7.61,5.57Z"/>
      <path class="cls-1" d="M69.62,28.65c-2.14-.41-4.34-.63-6.6-.63-.7,0-1.4.02-2.08.06.61,2.24.94,4.6.94,7.02,0,14.76-12.01,26.77-26.77,26.77-2.4,0-4.73-.32-6.94-.92h0c-.03.66-.05,1.31-.05,1.98,0,2.29.22,4.53.65,6.7,2.06.38,4.18.57,6.36.57,19.39,0,35.11-15.72,35.11-35.11,0-2.21-.21-4.36-.59-6.46ZM35.11,0C15.72,0,0,15.72,0,35.11c0,9.58,3.84,18.26,10.05,24.59.23-3.83.86-7.58,1.88-11.2-2.29-3.94-3.59-8.52-3.59-13.39,0-14.76,12.01-26.77,26.77-26.77,4.85,0,9.41,1.29,13.33,3.56,3.62-1.03,7.36-1.67,11.19-1.91C53.31,3.81,44.65,0,35.11,0Z"/>
    </g>
  </g>
</svg>