<?xml version="1.0" encoding="UTF-8"?>
<svg id="Layer_2" data-name="Layer 2" xmlns="http://www.w3.org/2000/svg" viewBox="0 0 90.53 90.24">
  <defs>
    <style>
      .cls-1 {
        fill: #fff;
      }
    </style>
  </defs>
  <g id="Objects">
    <g>
      <path class="cls-1" d="M40.7,78.78v2.06h-.1v.08H9.55l.5-2.47c.09-.44.19-.87.28-1.28.09-.39.2-.79.31-1.19l.06-.22.06-.21c.09-.31.18-.6.27-.9h0s0-.04,0-.04c.08-.24.16-.48.25-.73.09-.27.19-.54.29-.81.12-.34.26-.69.4-1.03.12-.3.24-.58.38-.89.05-.12.1-.25.17-.37.13-.29.25-.55.37-.8.05-.11.1-.22.16-.32.13-.26.27-.53.41-.79.05-.1.11-.22.19-.35,0,0,0-.01,0-.02v-.03s.03-.04.03-.04c.18-.34.35-.64.52-.92.16-.27.33-.56.52-.85l.07-.1c.05-.08.11-.17.16-.25l.07-.11c.18-.29.39-.6.59-.89.23-.33.47-.67.74-1.03.18-.25.37-.5.62-.82l.02-.02.02-.02.05-.06c.07-.1.16-.2.23-.29.2-.25.41-.51.64-.77.05-.07.1-.11.13-.15.23-.27.45-.52.7-.78.07-.08.14-.16.22-.23.24-.26.5-.53.84-.87,2.57-2.57,5.46-4.71,8.62-6.37h-15.44c-4.04,4.09-7.22,8.83-9.46,14.11C1.22,73.56.02,79.47,0,85.57v3.98s0,.68,0,.68h49.81v-40.46h0v-7.41s0-30.3,0-30.3v-2.06h.12l2.06-.02h28.99l-.5,2.47c-1.4,6.89-4.79,13.18-9.8,18.18-1.06,1.06-2.17,2.04-3.34,2.95h13.2c2.63-3.25,4.78-6.84,6.41-10.69,2.35-5.56,3.55-11.47,3.57-17.56V.67s-49.82,0-49.82,0v78.12Z"/>
      <path class="cls-1" d="M9.34,40.45V9.52l2.46.49c6.93,1.38,13.26,4.77,18.28,9.8.34.34.68.7,1.01,1.06v-12.39c-2.73-1.97-5.68-3.62-8.78-4.93C16.76,1.19,10.84,0,4.74,0H0v47.04h31.09v-6.59H9.34Z"/>
      <path class="cls-1" d="M80.52,47.04v33.67l-2.46-.49c-6.92-1.37-13.24-4.75-18.29-9.79-.11-.11-.21-.21-.32-.32v12.15c2.52,1.74,5.23,3.23,8.08,4.43,5.57,2.36,11.48,3.55,17.58,3.55h4.73v-49.79h-30.38v6.59h21.06Z"/>
    </g>
  </g>
</svg>