<?xml version="1.0" encoding="UTF-8"?>
<svg id="Layer_2" data-name="Layer 2" xmlns="http://www.w3.org/2000/svg" viewBox="0 0 80.83 129.09">
  <defs>
    <style>
      .cls-1 {
        fill: #fff;
      }
    </style>
  </defs>
  <g id="Objects">
    <g>
      <path class="cls-1" d="M0,94.18v28.2l6.13,4.95.47-.38,17.01-13.73L0,94.18ZM3.43,101.35l14.71,11.87-12.02,9.69-2.7-2.18v-19.39Z"/>
      <path class="cls-1" d="M26.88,114.11l-1.09.88-17.48,14.1h34.95l1.09-.88,1.1-.88,35.38-28.56v-28.19l-52.86,42.65-1.09.88ZM77.4,77.75v19.38l-34.1,27.52-1.1.88-.15.12h-24.02l9.92-8,1.09-.88,1.08-.88,47.28-38.14Z"/>
      <path class="cls-1" d="M6.59,91.66l17.01-13.73L0,58.9v28.2l6.13,4.94.46-.37ZM3.43,85.45v-19.38l14.71,11.87-12.01,9.69-2.7-2.18Z"/>
      <path class="cls-1" d="M26.88,78.82l-1.1.88-17.47,14.1h34.95l1.09-.88,1.09-.88,35.39-28.55v-28.19l-52.86,42.65-1.09.88ZM77.4,42.47v19.38l-34.12,27.53-1.08.88-.15.12h-24.03l9.9-7.99,1.11-.89,1.08-.88,47.28-38.14Z"/>
      <path class="cls-1" d="M6.59,56.37l17.01-13.72L0,23.61v28.19l6.13,4.95.47-.38ZM3.43,30.78l14.71,11.87-12.01,9.69-2.7-2.18v-19.38Z"/>
      <path class="cls-1" d="M27.97,42.65l-1.09.88-1.1.88-17.47,14.1h34.95l1.09-.88,1.1-.88,35.38-28.55V0L27.97,42.65ZM77.4,26.56l-34.1,27.52-1.1.88-.15.12h-24.03l9.91-8,1.1-.89,1.08-.88L77.4,7.17v19.39Z"/>
    </g>
  </g>
</svg>