<?xml version="1.0" encoding="UTF-8"?>
<svg id="Layer_2" data-name="Layer 2" xmlns="http://www.w3.org/2000/svg" viewBox="0 0 98.5 98.5">
  <defs>
    <style>
      .cls-1 {
        fill: #fff;
      }
    </style>
  </defs>
  <g id="Objects">
    <g>
      <polygon class="cls-1" points="21.2 38.56 23.26 38.56 23.26 40.61 23.26 72.3 32.57 62.99 32.57 29.26 0 29.26 0 95.56 9.31 86.25 9.31 40.61 9.31 38.56 11.37 38.56 21.2 38.56"/>
      <polygon class="cls-1" points="57.89 75.24 59.94 75.24 59.94 77.3 59.94 87.14 59.94 89.19 57.89 89.19 16.99 89.19 7.68 98.5 69.25 98.5 69.25 65.93 40.25 65.93 30.94 75.24 57.89 75.24"/>
      <polygon class="cls-1" points="89.2 37.04 89.2 39.1 87.14 39.1 67.08 39.1 57.78 48.4 98.5 48.4 98.5 7.68 89.2 16.98 89.2 37.04"/>
      <polygon class="cls-1" points="86.26 9.3 95.56 0 50.1 0 50.1 45.46 59.4 36.15 59.4 11.36 59.4 9.3 61.46 9.3 86.26 9.3"/>
    </g>
  </g>
</svg>