<?xml version="1.0" encoding="UTF-8"?>
<svg id="Layer_2" data-name="Layer 2" xmlns="http://www.w3.org/2000/svg" viewBox="0 0 115.62 103.15">
  <defs>
    <style>
      .cls-1 {
        fill: #fff;
      }
    </style>
  </defs>
  <g id="Objects">
    <g>
      <polygon class="cls-1" points="38.21 80.8 46.41 85.54 56.44 79.75 48.24 75.02 48.24 5.51 38.7 0 37.86 .48 0 22.34 0 33.92 38.21 11.86 38.21 80.8"/>
      <polygon class="cls-1" points="67.38 5.51 67.38 78.45 38.7 95.01 10.02 78.45 10.02 33.15 0 38.94 0 80.8 38.7 103.15 77.4 80.8 77.4 11.86 115.62 33.92 115.62 22.34 76.91 0 67.38 5.51"/>
      <polygon class="cls-1" points="72.17 88.84 62.15 94.63 76.91 103.15 115.62 80.8 115.62 38.94 105.59 33.15 105.59 75.02 76.91 91.58 72.17 88.84"/>
    </g>
  </g>
</svg>