<?xml version="1.0" encoding="UTF-8"?>
<svg id="Layer_2" data-name="Layer 2" xmlns="http://www.w3.org/2000/svg" viewBox="0 0 151.63 85.47">
  <defs>
    <style>
      .cls-1 {
        fill: #fff;
      }
    </style>
  </defs>
  <g id="Objects">
    <path class="cls-1" d="M151.63,26.18h-46.45L128.41,0H23.22l23.23,26.18H0l25.72,29h0s26.87,30.29,26.87,30.29l23.23-26.18,23.23,26.18,25.28-28.5.03-.03,27.29-30.76ZM69.75,5.49l-17.17,19.35L35.42,5.49h34.33ZM139.43,31.67l-17.17,19.35-17.16-19.35h34.33ZM52.59,33.1l17.08,19.27h-34.17l17.09-19.27ZM58.66,31.67h34.32l-17.16,19.35-17.16-19.35ZM99.04,33.1l17.08,19.26h-34.17l17.08-19.26ZM58.73,26.18l17.08-19.26,17.08,19.26h-34.17ZM99.04,24.84l-17.17-19.35h34.33l-17.17,19.35ZM46.52,31.67l-17.16,19.35L12.2,31.67h34.32ZM69.75,57.85l-17.17,19.35-17.17-19.35h34.33ZM116.21,57.85l-17.17,19.35-17.17-19.35h34.33Z"/>
  </g>
</svg>