<?xml version="1.0" encoding="UTF-8"?>
<svg id="Objects" xmlns="http://www.w3.org/2000/svg" viewBox="0 0 848.12 837.07">
  <defs>
    <style>
      .cls-1 {
        fill: #fff;
      }
    </style>
  </defs>
  <g>
    <path class="cls-1" d="M288.45,262.16l13,22.52c1.47-.03,2.94-.04,4.43-.04,3.8,0,7.56.09,11.25.25l-28.68-49.67-31.51,54.58c5.47-1.25,11.28-2.29,17.35-3.11l14.17-24.53ZM265.11,283.93l23.34-40.42,21.37,37.02c-1.32-.02-2.63-.03-3.95-.03-.68,0-1.36,0-2.05,0l-11.79-20.42-3.59-6.22-3.59,6.22-13.15,22.78c-2.22.32-4.43.67-6.59,1.06Z"/>
    <path class="cls-1" d="M269.12,359.18c-16.25-7.14-26.19-16.7-26.19-27.2,0-3.5,1.1-6.89,3.17-10.12h92.37l-16.83-29.14c6.4-.53,13.03-.81,19.82-.81,9.15,0,18,.51,26.4,1.46-.48-.16-.98-.31-1.48-.46.49.15.99.3,1.48.46.56.06,1.12.13,1.69.2-1.48-.38-2.99-.73-4.52-1.08,0,0,0,0,0,0-13.72-3.06-29.51-4.81-46.31-4.83-.1,0-.2,0-.3,0-3.82,0-7.59.09-11.3.27-1.24.06-2.46.13-3.68.2h0,0c-11.71.73-22.71,2.32-32.61,4.59-.86.2-1.7.4-2.54.6-5.87,1.44-11.32,3.13-16.27,5.03-18.25,7-29.61,16.87-29.61,27.8,0,14.03,18.73,26.31,46.73,33.04ZM307.06,294.41l8.07,13.97h-53.33c11.29-6.3,27-11.21,45.26-13.97Z"/>
  </g>
  <g>
    <path class="cls-1" d="M269.64,743.22l41.74-41.75-16.59,4.54c-17.26,4.72-31.81,12.91-43.24,24.33l-12.87,12.87c4.27,4.27,9.87,6.41,15.48,6.41s11.2-2.14,15.48-6.41ZM255.72,734.5c9.58-9.58,21.56-16.75,35.65-21.33l-25.89,25.89c-3.02,3.02-7.04,4.69-11.32,4.69-2.23,0-4.39-.45-6.37-1.31l7.93-7.93Z"/>
    <path class="cls-1" d="M263.97,806.7l12.87,12.87c4.27-4.27,6.41-9.87,6.41-15.48s-2.14-11.2-6.41-15.48l-41.74-41.74,4.54,16.59c4.72,17.26,12.91,31.81,24.34,43.24ZM272.68,792.77c4.77,4.77,5.9,11.84,3.37,17.69l-7.92-7.92c-9.58-9.58-16.75-21.56-21.33-35.65l25.89,25.89Z"/>
    <path class="cls-1" d="M337.77,775.12c-5.6,0-11.2,2.14-15.48,6.41l-41.74,41.74,16.59-4.54c17.26-4.72,31.81-12.91,43.24-24.34l12.87-12.87c-2.14-2.14-4.61-3.74-7.24-4.81-2.63-1.07-5.43-1.6-8.24-1.6ZM336.22,790.25c-9.58,9.58-21.56,16.75-35.65,21.33l25.89-25.89c3.02-3.02,7.04-4.69,11.32-4.69,2.23,0,4.39.45,6.37,1.32l-7.93,7.93Z"/>
    <path class="cls-1" d="M315.1,736.13l41.74,41.74-4.54-16.59c-4.72-17.26-12.91-31.81-24.34-43.24l-12.87-12.87c-8.55,8.55-8.55,22.4,0,30.95ZM315.89,714.29l7.92,7.92c9.58,9.58,16.75,21.56,21.33,35.65l-25.89-25.89c-4.77-4.77-5.9-11.84-3.37-17.69Z"/>
  </g>
  <g>
    <path class="cls-1" d="M1.47,48.3v.05s-.02.07-.02.07c-.02.1-.03.2-.04.29h0s0,.02,0,.02h0s0,.04,0,.06c0,.06-.02.12-.02.18l-.02.15v.03s-.01.05-.01.05h0s0,.03,0,.03v.02s0,.01,0,.01v.05s0,.04,0,.04h0s0,.03,0,.03c-.02.19-.05.38-.07.57-.02.17-.04.34-.06.51,0,.07-.01.13-.02.19h0s0,.01,0,.01h0c-.02.21-.05.42-.07.62-.02.15-.03.31-.04.47v.02l-.02.15c0,.06-.01.12-.02.18,0,.06-.01.13-.02.19,0,.03,0,.07,0,.1,0,.05,0,.1-.01.15,0,.06,0,.12-.01.19,0,.03,0,.06,0,.09-.02.21-.03.43-.05.69h0s0,0,0,0h0c0,.12-.01.23-.02.33,0,.11-.01.23-.02.34h0s0,.02,0,.02v.02h0s0,.03,0,.05c0,.03,0,.05,0,.08v.03h0s0,0,0,0v.04c0,.13-.01.25-.02.38,0,.05,0,.11,0,.16,0,.23-.02.45-.02.67,0,.03,0,.07,0,.11v.08c0,.18,0,.37,0,.55v.1s0,.05,0,.05h0v.19c0,.06,0,.11,0,.17,0,.04,0,.08,0,.12s0,.08,0,.12c0,.05,0,.11,0,.16v.33c.16,10.84,4.51,21.01,12.23,28.62,7.73,7.63,17.97,11.83,28.83,11.83,1.73,0,3.44-.11,5.13-.32.77-.1,1.53-.2,2.29-.34,0,0,0,0,0,0-5.62-3.4-10.48-7.95-14.3-13.42-1.39-1.98-2.61-4.06-3.66-6.2-.24-.48-.46-.97-.68-1.46-.02-.05-.05-.11-.07-.16-2.66-5.99-4.05-12.48-4.05-19.16,0-9.71,2.93-19.04,8.47-26.98,1.27-1.82,2.66-3.54,4.16-5.15,4.86-5.24,10.82-9.3,17.54-11.9,2.04-.79,4.11-1.43,6.23-1.93,3.52-.83,7.14-1.24,10.81-1.24,8.58,0,16.82,2.28,24.02,6.55,0,0,0,0,0,0,0,0,0,0-.01-.01-.06-.06-.14-.13-.2-.2-.09-.09-.18-.17-.27-.26-.03-.03-.06-.05-.08-.08h0s-.02-.02-.02-.02h0s-.01-.02-.01-.02c-.08-.07-.17-.15-.25-.23-.09-.08-.17-.16-.26-.25h0s0-.02,0-.02l-.02-.02s-.03-.03-.05-.04c-.1-.09-.2-.19-.3-.28l-.02-.02-.13-.12s-.04-.04-.07-.06c-.15-.13-.29-.26-.43-.39-.17-.15-.33-.29-.48-.42-.05-.04-.1-.09-.16-.13-.11-.09-.22-.19-.33-.28l-.22-.18-.12-.1h0s-.09-.08-.09-.08l-.05-.04c-.13-.11-.26-.21-.39-.32l-.02-.02h0s-.01-.02-.01-.02h-.02c-.1-.09-.19-.17-.29-.24h0s0,0,0,0h0s0,0,0,0c-.31-.25-.63-.5-.95-.74h0s0-.01,0-.01c-.09-.07-.17-.13-.26-.2l-.11-.08-.06-.05s-.03-.02-.04-.03c0,0,0,0-.01-.01h0s-.01-.01-.01-.01h0s-.02-.02-.02-.02l-.18-.13-.07-.05-.25-.18s-.05-.04-.08-.06c-.05-.03-.09-.07-.14-.1l-.1-.07h0s0,0,0,0h0s0,0,0,0c-.1-.07-.19-.14-.29-.21-.02-.02-.05-.03-.07-.05l-.03-.02-.02-.02c-.24-.17-.47-.33-.71-.5h0s0,0,0,0h0c-.11-.08-.21-.15-.32-.23-.03-.02-.05-.04-.08-.05h0s0,0,0,0c-.16-.1-.32-.21-.48-.32,0,0-.02-.01-.03-.02h0s-.01,0-.01,0h-.02s-.07-.05-.1-.08c-.12-.08-.23-.15-.35-.22h-.02s0-.01,0-.01h-.02c-.17-.13-.35-.23-.52-.34h-.02s0-.01,0-.01l-.02-.02c-.18-.11-.36-.23-.54-.33l-.29-.17h0s-.09-.06-.13-.08c-.05-.03-.11-.07-.17-.1h-.01s0,0,0,0h0s0,0,0,0c-.03-.02-.07-.04-.1-.06-.13-.08-.26-.15-.39-.23l-.1-.06s-.09-.05-.13-.08c-.12-.07-.24-.14-.36-.21-.01,0-.02-.01-.04-.02-.81-.45-1.63-.89-2.46-1.3-.02,0-.04-.02-.06-.03h0s0,0,0,0h-.02c-.18-.1-.36-.19-.55-.28l-.49-.23h0s-.03-.02-.04-.02c0,0-.02,0-.03-.01h-.01s0,0,0,0h0c-.58-.28-1.11-.51-1.62-.73h-.01s-.01-.01-.01-.01h-.01s-.01,0-.01,0c-.12-.06-.25-.11-.37-.16l-.05-.02-.04-.02h0s0,0,0,0l-.22-.09c-.08-.03-.16-.06-.24-.1-.04-.02-.07-.03-.11-.04-.55-.22-1-.4-1.41-.55l-.25-.09h-.03s-.26-.11-.26-.11c-.7-.25-1.42-.5-2.15-.73h0s0,0,0,0c-.01,0-.02,0-.04-.01-.14-.04-.28-.09-.41-.13-.14-.04-.28-.09-.43-.13-.08-.03-.17-.05-.25-.08-.32-.09-.62-.18-.9-.26h-.01s0,0,0,0h0s-.01,0-.01,0c-.04-.01-.08-.02-.12-.03-.06-.02-.13-.03-.19-.05h-.04s-.06-.03-.06-.03c-.6-.16-1.21-.3-1.82-.45-.36-.08-.72-.16-1.08-.24-.61-.13-1.22-.26-1.84-.37-.23-.04-.46-.08-.69-.12h-.01s0,0,0,0h0c-.23-.04-.46-.08-.69-.11-.11-.02-.21-.03-.32-.05-.13-.02-.27-.04-.4-.06-.66-.09-1.32-.17-1.98-.24-1.28-.13-2.56-.22-3.85-.27-.72-.03-1.43-.04-2.15-.04-1.21,0-2.41.04-3.62.12-.13,0-.25.01-.38.02-1.33.09-2.66.23-3.97.41-.24.03-.47.07-.71.1,0,0-.01,0-.02,0,0,0,0,0,0,0h0L1.47,48.28v.02Z"/>
    <path class="cls-1" d="M114.14,65.62v-.04s.01-.05.01-.05c.01-.08.02-.16.03-.24v-.02s0-.03,0-.03v-.03c.02-.1.04-.21.05-.32v-.07s.02-.07.02-.07c0-.03,0-.07.02-.1l.04-.36.03-.24c.03-.24.06-.46.08-.68v-.03c.03-.21.05-.41.07-.61.02-.17.03-.33.05-.48h0s.02-.16.02-.16c.01-.11.02-.22.03-.33v-.04s0-.04,0-.04c.02-.14.02-.29.03-.43v-.06c.02-.21.04-.43.05-.68v-.02c.02-.22.03-.44.04-.66v-.06s0-.09,0-.09v-.09c.02-.18.02-.36.03-.55,0-.25.02-.48.02-.72v-.03s0-.11,0-.11c0-.17,0-.34,0-.51v-.22c0-.15,0-.29,0-.44,0-.15,0-.31,0-.46h0s0-.16,0-.16c-.16-10.84-4.5-21-12.22-28.62-7.73-7.63-17.97-11.83-28.84-11.83-2.51,0-4.99.22-7.42.67,5.62,3.4,10.49,7.95,14.3,13.42,5.54,7.94,8.47,17.27,8.47,26.98s-2.93,19.04-8.47,26.98c-5.41,7.75-12.91,13.65-21.7,17.05-5.42,2.1-11.15,3.17-17.03,3.17-8.58,0-16.82-2.28-24.02-6.54h.01s.03.04.03.04l.03.03s.07.07.1.1l.11.11c.09.09.18.18.28.27l.02.02.02.02c.15.15.33.32.51.48l.03.02.02.02c.12.11.23.22.35.33h0s.01.02.01.02c.21.19.41.38.63.56h.01s.01.02.01.02c.14.12.28.25.42.37l.03.02.09.08h0s.41.35.41.35l.08.07.02.02c.11.09.22.18.33.27l.04.03.04.04c.1.08.2.17.32.26l.04.03.04.03c.09.07.17.14.25.21l.03.02.02.02c.3.25.62.49.94.73.07.06.14.11.21.16.08.06.16.12.24.18.05.03.09.06.13.1l.08.06c.13.1.25.19.38.29l.12.09c.06.05.13.09.19.14l.02.02.03.02c.09.07.19.14.29.21l.1.07c.23.17.47.33.71.5h.02s.02.03.02.03c.1.07.21.14.32.21l.08.05.26.17.28.19c.14.09.29.19.44.28.15.1.3.19.44.28h.36l.65.62c.1.06.2.12.3.18.2.12.4.23.6.34h.02s.02.02.02.02c.16.09.31.18.47.27.84.48,1.69.93,2.55,1.35.19.09.38.19.56.28.03.02.06.03.08.04.18.08.35.17.53.25.54.25,1.09.5,1.62.73h.01s.01,0,.01,0c.13.06.27.12.4.17.04.02.08.03.13.06.18.07.36.15.54.22.44.18.91.36,1.41.55h.02s.02.01.02.01c.15.06.31.12.46.17h.02s.02.01.02.01c.73.27,1.45.51,2.14.73h.02s.02.02.02.02c.14.05.28.09.42.14h.02s.02,0,.02,0c.21.07.42.13.63.2l.18.05c.25.07.51.14.76.21.14.04.27.07.39.11h.03c1.57.43,3.17.79,4.74,1.06h.02s.02,0,.02,0c.19.03.4.07.65.11h.03c.25.05.47.08.66.11h.03s.03,0,.03,0c.22.04.44.07.67.1h.02c2.63.37,5.31.56,7.97.56s5.35-.19,7.98-.55h.06c.21-.04.42-.07.63-.1h.03s.02,0,.02,0l47.62-47.62s0-.06.01-.08Z"/>
  </g>
  <g>
    <path class="cls-1" d="M105.87,561.37c-1.71,3.02-3.74,5.86-6.04,8.47l.06.06-2.14,2.15c-9.52,9.58-22.21,14.86-35.72,14.86s-26.1-5.24-35.62-14.75c-9.51-9.51-14.75-22.16-14.75-35.61,0-.99.03-2,.09-3,0-.14.01-.28.02-.42v-.04c0-.09.02-.18.02-.28v-.05c.02-.21.04-.42.05-.62.02-.17.03-.35.05-.53.03-.27.05-.54.08-.81.02-.16.04-.33.06-.51.02-.22.06-.47.09-.72.02-.14.04-.27.06-.41.03-.23.07-.48.11-.73.02-.13.05-.28.07-.43.02-.12.04-.25.07-.37.03-.16.06-.35.09-.52.03-.16.06-.33.1-.5.04-.2.08-.39.12-.59.29-1.37.64-2.75,1.05-4.1v-.04c.06-.18.12-.35.18-.53.05-.15.09-.3.15-.46.28-.88.6-1.77.94-2.63.05-.12.09-.25.15-.37.05-.13.11-.27.16-.41.07-.17.14-.35.22-.53.06-.14.12-.29.19-.45l.03-.07c.09-.21.18-.42.28-.63.07-.15.14-.31.21-.46,1.27-2.74,2.81-5.39,4.57-7.88l.28-.39c.2-.28.4-.55.6-.81.1-.12.2-.26.3-.39.22-.28.44-.57.67-.85.13-.16.26-.33.4-.49.12-.15.26-.31.4-.48.13-.16.27-.32.41-.48.15-.18.31-.36.47-.54l-5.91-5.92c-9.81,10.81-15.2,24.76-15.2,39.42,0,15.69,6.11,30.43,17.2,41.52,11.09,11.09,25.84,17.2,41.52,17.2s30.52-6.14,41.61-17.3c3.17-3.18,5.96-6.71,8.32-10.5l-6.1-6.1Z"/>
    <path class="cls-1" d="M30.72,567.86c8.36,8.36,19.49,12.97,31.32,12.97.37,0,.74,0,1.11-.02.18,0,.36,0,.55-.02h.03c.27-.01.54-.02.82-.04.22-.01.43-.02.65-.04.11,0,.21-.02.3-.02h.15c.2-.03.4-.05.6-.07.18-.01.35-.03.52-.05.12-.01.23-.02.33-.04l.22-.02c.15-.02.29-.04.44-.06.55-.07,1.09-.15,1.61-.23.15-.02.29-.05.44-.08h.05c.12-.03.23-.05.35-.07h.06c.15-.04.3-.07.45-.1.4-.08.79-.16,1.18-.25.26-.06.52-.12.78-.18h.03c.07-.02.13-.04.2-.06.19-.05.37-.09.54-.14.15-.04.29-.08.43-.12.12-.03.23-.06.34-.09.1-.03.18-.05.26-.08l.06-.02c.11-.03.22-.06.33-.1.18-.05.34-.1.5-.15.13-.04.24-.08.36-.11.37-.12.74-.25,1.11-.38.1-.04.2-.07.29-.11l.07-.02c.13-.05.25-.09.36-.13.18-.07.35-.13.51-.19.14-.05.26-.1.38-.15.23-.09.43-.17.64-.26l.62-.26c.19-.08.38-.16.56-.25.11-.05.2-.09.29-.13l.09-.04c.15-.07.3-.14.45-.22.93-.44,1.85-.92,2.74-1.42.1-.05.19-.11.28-.16.21-.12.41-.24.61-.36l1.01-.62c.45-.28.91-.59,1.41-.93.14-.1.28-.19.41-.29l.06-.04c.1-.07.21-.15.31-.22l.03-.02c.08-.05.15-.11.22-.16l.03-.02c.13-.09.25-.18.38-.28.14-.11.28-.21.41-.31.09-.07.17-.14.25-.2l.09-.07c.14-.11.28-.22.42-.33.15-.12.28-.23.42-.35l.04-.03c.27-.22.53-.44.79-.67.08-.07.16-.14.24-.21l-5.92-5.92c-6.48,5.53-14.7,8.55-23.28,8.55-19.81,0-35.93-16.12-35.93-35.93,0-9.65,3.78-18.72,10.63-25.51,3.22-3.19,7.07-5.78,11.23-7.55l-6.28-6.28c-4,2.08-7.66,4.74-10.88,7.94-8.43,8.38-13.07,19.53-13.07,31.41s4.61,22.95,12.97,31.32Z"/>
    <path class="cls-1" d="M112.29,525.52c0-15.68-6.11-30.43-17.2-41.52-11.09-11.09-25.84-17.2-41.52-17.2s-30.52,6.14-41.61,17.3c-3.17,3.18-5.96,6.71-8.31,10.5l6.1,6.1c1.71-3.02,3.74-5.86,6.04-8.47l-.06-.06,2.14-2.15c9.52-9.59,22.21-14.86,35.72-14.86s26.1,5.24,35.61,14.75c9.51,9.51,14.75,22.16,14.75,35.61,0,1-.03,2.01-.09,3,0,.13-.02.28-.02.42,0,.1-.02.2-.02.31v.05c-.02.21-.04.42-.05.62-.02.17-.03.36-.05.54-.03.26-.05.54-.08.81-.02.16-.04.33-.06.51-.02.22-.06.47-.09.72-.02.14-.04.27-.06.41-.03.23-.07.48-.11.73-.02.13-.05.28-.07.43-.02.12-.04.25-.07.37-.02.16-.06.35-.09.52-.03.16-.06.33-.1.5-.04.19-.08.39-.12.59-.29,1.37-.64,2.76-1.05,4.1-.06.19-.11.38-.18.57-.05.15-.09.3-.15.46-.29.88-.6,1.77-.94,2.63-.05.12-.09.24-.14.37-.05.14-.11.27-.17.41-.07.17-.15.35-.22.53-.06.14-.12.29-.19.45l-.03.07c-.09.21-.18.42-.28.62-.07.15-.14.31-.21.46-1.27,2.74-2.81,5.39-4.57,7.88l-.28.39c-.2.28-.4.55-.6.81-.1.13-.2.26-.3.39-.22.28-.44.57-.67.85-.13.16-.26.33-.4.49-.12.14-.24.29-.37.45l-.02.03c-.14.16-.28.32-.42.48-.15.18-.31.36-.47.54l5.91,5.92c9.81-10.81,15.2-24.76,15.2-39.43Z"/>
    <path class="cls-1" d="M67.62,558.59l6.28,6.28c4-2.08,7.66-4.74,10.88-7.94,8.43-8.38,13.07-19.53,13.07-31.41s-4.61-22.95-12.97-31.31c-8.36-8.36-19.49-12.97-31.32-12.97-.37,0-.74,0-1.11.02-.18,0-.37,0-.55.02h-.03c-.27.01-.54.02-.82.04-.22.01-.43.02-.65.04-.11,0-.21.02-.3.02h-.15c-.19.03-.4.05-.6.06-.18.02-.35.03-.52.05-.12.01-.23.02-.34.04l-.17.02s-.04,0-.06,0c-.15.02-.28.03-.43.05-.55.07-1.09.15-1.61.24-.15.02-.29.05-.44.08h-.05c-.12.03-.22.05-.33.07h-.07c-.15.04-.29.07-.44.1-.41.08-.8.16-1.19.25-.26.06-.52.12-.78.18h-.03c-.07.02-.13.04-.2.05-.19.05-.37.09-.54.14-.15.04-.29.08-.43.12-.12.03-.23.06-.34.09-.1.03-.18.05-.26.08l-.06.02c-.11.03-.22.06-.33.1-.18.05-.34.1-.5.15-.13.04-.24.08-.36.11-.37.12-.74.25-1.11.38-.1.03-.19.07-.28.1l-.09.03c-.12.05-.23.08-.35.13-.19.07-.35.13-.52.2-.14.05-.25.1-.38.15-.23.09-.43.17-.64.26l-.62.26c-.19.08-.38.16-.56.25-.11.05-.2.09-.29.13l-.09.04c-.15.07-.3.14-.45.22-.93.44-1.85.92-2.74,1.42-.1.05-.19.11-.28.16-.19.11-.39.22-.58.34l-.64.39c-.13.08-.27.17-.41.25-.45.28-.91.59-1.41.93-.13.09-.25.18-.38.26l-.08.06c-.12.08-.22.15-.32.23l-.04.03c-.07.05-.14.1-.21.15l-.03.02c-.13.09-.25.18-.38.28-.14.11-.28.21-.41.31-.1.07-.18.14-.25.2l-.1.08c-.14.11-.28.22-.42.33-.16.12-.31.25-.46.38-.27.22-.53.44-.79.67-.08.07-.16.14-.24.21l5.92,5.92c6.48-5.53,14.7-8.56,23.28-8.56,19.81,0,35.93,16.12,35.93,35.93,0,9.66-3.78,18.72-10.63,25.52-3.22,3.19-7.07,5.78-11.23,7.55Z"/>
  </g>
  <g>
    <path class="cls-1" d="M585.35,479.49c-8.19-8.19-19.07-12.69-30.65-12.69-11.58,0-22.46,4.51-30.65,12.7-6.4,6.4-10.55,14.45-12.06,23.19-.15.88-.28,1.77-.37,2.67-.1.88-.17,1.77-.21,2.66-.04.71-.05,1.42-.05,2.14v5.89s0,2.65,0,2.65v2.65s0,32.15,0,32.15h32.15s2.65,0,2.65,0h2.65c.04-.72.07-1.45.07-2.19v-5.82h-2.65s-26.86,0-26.86,0v-24.22s0-5.29,0-5.29v-5.83c0-.74.02-1.46.07-2.19.05-.89.14-1.77.26-2.65.12-.9.28-1.78.47-2.65,1.45-6.75,4.85-12.78,9.56-17.49,6.4-6.4,15.23-10.36,24.97-10.36,19.48,0,35.33,15.85,35.33,35.33,0,9.74-3.96,18.57-10.36,24.97-4.71,4.71-10.74,8.1-17.49,9.56v6.63c0,.52,0,1.04-.02,1.55,8.74-1.51,16.79-5.66,23.19-12.06,8.19-8.19,12.7-19.07,12.7-30.65s-4.51-22.46-12.7-30.65Z"/>
    <path class="cls-1" d="M519.37,515.97h29.51s0,24.22,0,24.22v11.11c0,.73-.02,1.46-.07,2.19-.05.89-.14,1.77-.26,2.65-.12.89-.27,1.77-.47,2.64-1.46,6.75-4.85,12.78-9.56,17.5-6.4,6.4-15.23,10.36-24.97,10.36-19.48,0-35.33-15.85-35.33-35.33,0-9.74,3.97-18.57,10.36-24.97,4.71-4.71,10.75-8.1,17.49-9.56v-6.62c0-.52,0-1.04.02-1.55-8.74,1.5-16.79,5.66-23.2,12.06-8.19,8.19-12.7,19.07-12.7,30.65,0,11.58,4.51,22.46,12.69,30.65,8.19,8.19,19.07,12.7,30.65,12.7s22.46-4.51,30.65-12.7c7.68-7.68,12.12-17.74,12.64-28.51.02-.35.03-.69.04-1.04,0-.19,0-.37,0-.56,0-.18,0-.36,0-.53h0v-43.35s-32.15,0-32.15,0h-2.65s-2.65,0-2.65,0c-.04.72-.07,1.45-.07,2.19v5.83Z"/>
  </g>
  <g>
    <path class="cls-1" d="M796.7,768.4v19.2h-48.48c-1.27,0-2.5-.12-3.7-.35-.17-.03-.34-.08-.51-.11-2.7-.59-5.19-1.74-7.36-3.31-4.91-3.59-8.11-9.38-8.11-15.91v-66.45c9.74,5.54,15.99,16,15.99,27.46v31.44c0,6.21,5.04,11.25,11.25,11.25h33.06c3.06,0,5.84-1.23,7.87-3.22Z"/>
    <path class="cls-1" d="M816.07,701.47v37.1c-3.44-5.09-8.83-8.81-15.21-10.02-.25-.05-.51-.1-.77-.13.18-11.26,6.39-21.48,15.98-26.94Z"/>
    <path class="cls-1" d="M816.07,751.93v66.44c-9.73-5.54-15.98-16-15.98-27.46v-31.44c0-6.2-5.05-11.25-11.25-11.25h-33.06c-3.06,0-5.84,1.23-7.87,3.22v-19.2h48.48c1.27,0,2.5.12,3.7.35,9.09,1.74,15.98,9.75,15.98,19.34Z"/>
    <path class="cls-1" d="M744.52,791.42c-.18,11.26-6.39,21.48-15.98,26.94v-37.11c1.52,2.25,3.44,4.25,5.69,5.89,2.68,1.95,5.67,3.31,8.9,4.01l.11.03c.17.03.34.07.51.1.25.05.51.1.78.13Z"/>
  </g>
  <g>
    <polygon class="cls-1" points="500.44 110.78 500.43 110.76 496.32 103.63 463.68 47.11 455.45 47.11 492.2 110.76 492.19 110.78 492.21 110.78 500.42 110.78 500.44 110.78"/>
    <polygon class="cls-1" points="533.36 110.78 533.35 110.76 529.24 103.63 525.12 96.51 521.01 89.38 516.89 82.25 512.78 75.12 496.6 47.11 488.37 47.11 508.66 82.25 512.78 89.38 516.89 96.51 521.01 103.63 525.12 110.76 525.11 110.78 525.13 110.78 533.34 110.78 533.36 110.78"/>
    <polygon class="cls-1" points="545.7 103.63 541.58 96.51 537.47 89.38 533.35 82.25 529.24 75.12 525.12 68 521.01 60.87 513.06 47.11 504.83 47.11 516.89 67.99 525.12 82.25 529.24 89.38 533.35 96.51 537.47 103.63 541.58 110.76 541.57 110.78 541.59 110.78 549.81 110.78 549.82 110.78 549.81 110.76 545.7 103.63"/>
    <polygon class="cls-1" points="563.44 1.63 555.21 1.63 525.17 53.67 529.28 60.8 563.44 1.63"/>
    <polygon class="cls-1" points="508.67 110.78 516.88 110.78 516.9 110.78 516.89 110.76 512.78 103.63 508.66 96.51 504.55 89.38 480.14 47.11 471.91 47.11 500.43 96.5 504.55 103.63 508.66 110.76 508.65 110.78 508.67 110.78"/>
    <polygon class="cls-1" points="537.51 75.05 579.9 1.63 571.67 1.63 533.4 67.92 533.44 68 537.51 75.05"/>
    <polygon class="cls-1" points="545.74 89.31 596.36 1.63 588.13 1.63 541.63 82.18 541.67 82.25 545.74 89.31"/>
    <polygon class="cls-1" points="612.82 1.63 604.59 1.63 549.86 96.43 549.9 96.51 553.97 103.56 612.82 1.63"/>
  </g>
  <g>
    <rect class="cls-1" x="544.93" y="745.51" width="24.65" height="9.52" transform="translate(-367.3 613.79) rotate(-45)"/>
    <rect class="cls-1" x="509.7" y="780.74" width="24.65" height="9.52" transform="translate(-402.53 599.18) rotate(-45)"/>
    <rect class="cls-1" x="533.86" y="734.44" width="24.65" height="9.52" transform="translate(-362.72 602.72) rotate(-45)"/>
    <rect class="cls-1" x="498.63" y="769.66" width="24.65" height="9.52" transform="translate(-397.95 588.13) rotate(-45)"/>
    <rect class="cls-1" x="506.19" y="737.94" width="9.52" height="24.65" transform="translate(-380.86 581.04) rotate(-45)"/>
    <rect class="cls-1" x="517.26" y="726.87" width="9.52" height="24.65" transform="translate(-369.79 585.63) rotate(-45)"/>
    <rect class="cls-1" x="552.49" y="762.1" width="9.52" height="24.65" transform="translate(-384.39 620.86) rotate(-45)"/>
    <rect class="cls-1" x="541.42" y="773.17" width="9.52" height="24.65" transform="translate(-395.46 616.27) rotate(-45)"/>
    <polygon class="cls-1" points="558.26 804.31 551.53 797.57 534.1 815 516.67 797.57 509.94 804.31 534.1 828.47 558.26 804.31"/>
    <polygon class="cls-1" points="498.87 744.92 492.14 738.18 467.98 762.34 492.14 786.5 498.87 779.77 481.44 762.34 498.87 744.92"/>
    <polygon class="cls-1" points="576.06 738.18 569.33 744.92 586.76 762.34 569.33 779.77 576.06 786.5 600.22 762.34 576.06 738.18"/>
    <polygon class="cls-1" points="551.53 727.11 558.26 720.38 534.1 696.22 509.94 720.38 516.67 727.11 534.1 709.69 551.53 727.11"/>
  </g>
  <g>
    <path class="cls-1" d="M287.77,25.6c.12,0,.25,0,.37.02.71.03,1.42.07,2.16.13,3.33.24,6.55.73,9.59,1.44v-7.73c-3.11-.79-6.44-1.32-9.9-1.57-1.27-.1-2.62-.16-4.01-.19-.37,0-.74,0-1.12,0h-.03c-6.5,0-13.18.86-19.87,2.55-7.6,1.91-14.88,4.86-21.12,8.54v76.6c6.09-3.33,12.97-6,20.12-7.8,5.65-1.42,11.34-2.29,16.91-2.58h.05s.02,0,.02,0c.05,0,.1,0,.14,0,.96-.05,1.91-.08,2.89-.09v-7.84c-7.19.07-14.57,1.05-21.94,2.9-2.65.67-5.22,1.43-7.63,2.25l-2.72.93v-59.73l1.17-.56c4.38-2.09,9.1-3.78,14.02-5.02,4.87-1.23,9.73-1.97,14.45-2.22.1,0,.18-.01.24-.01,1.09-.05,2.19-.08,3.27-.08.4,0,.79,0,1.18.01h.05c.57.01,1.14.03,1.71.06Z"/>
    <path class="cls-1" d="M307.11,33.69c-1.8,0-3.59-.06-5.31-.19-2.09-.15-4.17-.4-6.17-.74-1.22-.21-2.42-.45-3.59-.72v75.73c4.6,1.17,9.66,1.77,15.07,1.77,6.49,0,13.18-.86,19.88-2.54,7.59-1.92,14.87-4.86,21.12-8.54V23.21c-6.09,3.33-12.97,6-20.11,7.8-7.03,1.77-14.06,2.67-20.88,2.67ZM337.55,34.99l2.72-.92v59.73l-1.17.56c-4.37,2.08-9.09,3.77-14.03,5.01-6.07,1.53-12.11,2.31-17.95,2.31-1.81,0-3.61-.08-5.35-.23l-1.88-.16v-7.23h.01s0-52.01,0-52.01v-2.2l2.19.14c1.59.1,3.24.15,5.03.15,7.48,0,15.15-.98,22.8-2.91,2.57-.65,5.14-1.41,7.64-2.25Z"/>
  </g>
  <g>
    <polygon class="cls-1" points="29.75 282.99 31.81 282.99 31.81 285.05 31.81 316.73 41.12 307.43 41.12 273.69 8.55 273.69 8.55 339.99 17.86 330.69 17.86 285.05 17.86 282.99 19.91 282.99 29.75 282.99"/>
    <polygon class="cls-1" points="66.43 319.68 68.49 319.68 68.49 321.74 68.49 331.57 68.49 333.63 66.43 333.63 25.53 333.63 16.23 342.94 77.79 342.93 77.79 310.37 48.79 310.37 39.48 319.68 66.43 319.68"/>
    <polygon class="cls-1" points="97.75 281.48 97.75 283.54 95.69 283.54 75.63 283.54 66.33 292.84 107.05 292.84 107.05 252.12 97.75 261.42 97.75 281.48"/>
    <polygon class="cls-1" points="94.8 253.74 104.1 244.44 58.65 244.44 58.65 289.89 67.95 280.59 67.95 255.8 67.95 253.74 70.01 253.74 94.8 253.74"/>
  </g>
  <g>
    <polygon class="cls-1" points="38.21 814.72 46.41 819.45 56.44 813.67 48.24 808.93 48.24 739.43 38.7 733.92 37.86 734.4 0 756.26 0 767.84 38.21 745.77 38.21 814.72"/>
    <polygon class="cls-1" points="67.38 739.43 67.38 812.36 38.7 828.93 10.02 812.36 10.02 767.07 0 772.85 0 814.72 38.7 837.07 77.4 814.72 77.4 745.77 115.62 767.84 115.62 756.26 76.91 733.92 67.38 739.43"/>
    <polygon class="cls-1" points="72.17 822.75 62.15 828.55 76.91 837.07 115.62 814.72 115.62 772.85 105.59 767.07 105.59 808.93 76.91 825.5 72.17 822.75"/>
  </g>
  <g>
    <polygon class="cls-1" points="495.66 303.69 549.35 250 549.35 228.53 495.66 282.22 495.66 303.69"/>
    <polygon class="cls-1" points="495.66 350.35 549.35 296.66 549.35 279.31 495.66 333 495.66 350.35"/>
    <polygon class="cls-1" points="518.92 303.69 572.61 250 572.61 231.96 518.92 285.65 518.92 303.69"/>
    <polygon class="cls-1" points="572.61 278.62 518.92 332.31 518.92 350.35 572.61 296.66 572.61 278.62"/>
  </g>
  <g>
    <path class="cls-1" d="M291.4,574.74v2.06h-.1v.08h-31.05l.5-2.47c.09-.44.19-.87.28-1.28.09-.39.2-.79.31-1.19l.06-.22.06-.21c.09-.31.18-.6.27-.9h0s0-.04,0-.04c.08-.24.16-.48.25-.73.09-.27.19-.54.29-.81.12-.34.26-.69.4-1.03.12-.3.24-.58.38-.89.05-.12.1-.25.17-.37.13-.29.25-.55.37-.8.05-.11.1-.22.16-.32.13-.26.27-.53.41-.79.05-.1.11-.22.19-.35,0,0,0-.01,0-.02v-.03s.03-.04.03-.04c.18-.34.35-.64.52-.92.16-.27.33-.56.52-.85l.07-.1c.05-.08.11-.17.16-.25l.07-.11c.18-.29.39-.6.59-.89.23-.33.47-.67.74-1.03.18-.25.37-.5.62-.82l.02-.02.02-.02.05-.06c.07-.1.16-.2.23-.29.2-.25.41-.51.64-.77.05-.07.1-.11.13-.15.23-.27.45-.52.7-.78.07-.08.14-.16.22-.23.24-.26.5-.53.84-.87,2.57-2.57,5.46-4.71,8.62-6.37h-15.44c-4.04,4.09-7.22,8.83-9.46,14.11-2.36,5.56-3.56,11.47-3.57,17.57v3.98s0,.68,0,.68h49.81v-40.46h0v-7.41s0-30.3,0-30.3v-2.06h.12l2.06-.02h28.99l-.5,2.47c-1.4,6.89-4.79,13.18-9.8,18.18-1.06,1.06-2.17,2.04-3.34,2.95h13.2c2.63-3.25,4.78-6.84,6.41-10.69,2.35-5.56,3.55-11.47,3.57-17.56v-4.67s-49.82,0-49.82,0v78.12Z"/>
    <path class="cls-1" d="M260.04,536.41v-30.93l2.46.49c6.93,1.38,13.26,4.77,18.28,9.8.34.34.68.7,1.01,1.06v-12.39c-2.73-1.97-5.68-3.62-8.78-4.93-5.56-2.35-11.47-3.54-17.58-3.54h-4.73v47.04h31.09v-6.59h-21.76Z"/>
    <path class="cls-1" d="M331.23,542.99v33.67l-2.46-.49c-6.92-1.37-13.24-4.75-18.29-9.79-.11-.11-.21-.21-.32-.32v12.15c2.52,1.74,5.23,3.23,8.08,4.43,5.57,2.36,11.48,3.55,17.58,3.55h4.73v-49.79h-30.38v6.59h21.06Z"/>
  </g>
  <g>
    <path class="cls-1" d="M731.89,552.63v28.2l6.13,4.95.47-.38,17.01-13.73-23.6-19.04ZM735.32,559.81l14.71,11.87-12.02,9.69-2.7-2.18v-19.39Z"/>
    <path class="cls-1" d="M758.77,572.56l-1.09.88-17.48,14.1h34.95l1.09-.88,1.1-.88,35.38-28.56v-28.19l-52.86,42.65-1.09.88ZM809.29,536.2v19.38l-34.1,27.52-1.1.88-.15.12h-24.02l9.92-8,1.09-.88,1.08-.88,47.28-38.14Z"/>
    <path class="cls-1" d="M738.48,550.12l17.01-13.73-23.6-19.04v28.2l6.13,4.94.46-.37ZM735.32,543.91v-19.38l14.71,11.87-12.01,9.69-2.7-2.18Z"/>
    <path class="cls-1" d="M758.77,537.28l-1.1.88-17.47,14.1h34.95l1.09-.88,1.09-.88,35.39-28.55v-28.19l-52.86,42.65-1.09.88ZM809.29,500.92v19.38l-34.12,27.53-1.08.88-.15.12h-24.03l9.9-7.99,1.11-.89,1.08-.88,47.28-38.14Z"/>
    <path class="cls-1" d="M738.48,514.82l17.01-13.72-23.6-19.04v28.19l6.13,4.95.47-.38ZM735.32,489.24l14.71,11.87-12.01,9.69-2.7-2.18v-19.38Z"/>
    <path class="cls-1" d="M759.86,501.1l-1.09.88-1.1.88-17.47,14.1h34.95l1.09-.88,1.1-.88,35.38-28.55v-28.2l-52.86,42.65ZM809.29,485.01l-34.1,27.52-1.1.88-.15.12h-24.03l9.91-8,1.1-.89,1.08-.88,47.28-38.14v19.39Z"/>
  </g>
  <path class="cls-1" d="M848.12,302.07h-46.45l23.23-26.18h-105.19l23.23,26.18h-46.44l25.72,29h0s26.87,30.29,26.87,30.29l23.23-26.18,23.23,26.18,25.28-28.5.03-.03,27.29-30.76ZM766.24,281.37l-17.17,19.35-17.17-19.35h34.33ZM835.92,307.55l-17.17,19.35-17.16-19.35h34.33ZM749.08,308.98l17.08,19.27h-34.17l17.09-19.27ZM755.14,307.55h34.32l-17.16,19.35-17.16-19.35ZM795.53,308.98l17.08,19.26h-34.17l17.08-19.26ZM755.22,302.07l17.08-19.26,17.08,19.26h-34.17ZM795.53,300.72l-17.17-19.35h34.33l-17.17,19.35ZM743.01,307.55l-17.16,19.35-17.16-19.35h34.32ZM766.24,333.74l-17.17,19.35-17.17-19.35h34.33ZM812.69,333.74l-17.17,19.35-17.17-19.35h34.33Z"/>
  <g>
    <path class="cls-1" d="M780.45,19.23c1.88,2.64,3.4,5.55,4.49,8.67,1.36.18,2.71.43,4.02.74.22.05.44.11.66.16.05.01.11.03.16.04.28.07.56.15.84.23,0,0,0,0,.01,0,.27.07.54.15.8.24.23.07.46.14.69.22.24.08.47.16.71.24.22.07.44.15.66.24.22.08.43.16.65.25,1.27.49,2.51,1.05,3.71,1.67.29.15.57.29.85.45.48.26.95.53,1.42.81.2.12.4.24.59.36.09.05.19.11.28.17.21.13.42.27.62.41.2.13.4.26.59.4,2.3,1.57,4.42,3.39,6.34,5.4.23.23.44.46.65.7.18.19.35.39.52.58.28.32.55.64.82.97.17.19.32.39.48.59.21.27.42.54.62.81.19.26.38.52.56.78.19.26.37.52.55.79.36.53.7,1.06,1.03,1.61.17.27.33.55.49.83.16.28.32.56.47.84.33.61.65,1.23.94,1.85.12.25.24.5.35.75.11.25.22.5.33.75.1.22.19.44.28.67.08.21.17.41.25.62.2.52.4,1.05.57,1.58.11.31.21.62.3.93,0,0,0,.02.01.04.09.3.18.6.26.9.25.86.46,1.73.65,2.61.05.22.09.45.14.67.02.13.05.26.07.38.03.17.06.34.09.52.04.25.08.49.12.74.04.25.08.5.11.75.01.11.03.22.04.33.02.18.04.37.06.55.02.18.04.35.05.53.03.27.05.54.07.81.02.32.04.64.06.96.02.34.03.68.04,1.02,0,.34.01.68.01,1.02,0,21.96-17.87,39.83-39.83,39.83-.34,0-.69,0-1.03-.01-.34,0-.68-.02-1.02-.04-.33-.01-.67-.03-1-.06h-.04c-.31-.02-.62-.05-.93-.08-.27-.03-.53-.06-.8-.09-.17-.02-.33-.04-.5-.06-.24-.03-.47-.06-.7-.1-.02,0-.04,0-.06,0-.24-.03-.47-.07-.7-.11-.2-.03-.4-.07-.59-.11-.29-.05-.58-.11-.86-.17-1.55-.33-3.08-.75-4.57-1.26-.29-.1-.58-.2-.87-.31-.28-.1-.56-.21-.85-.32-.38-.15-.76-.31-1.14-.47-.24-.1-.48-.2-.71-.31-.25-.11-.51-.24-.77-.36-.32-.16-.65-.31-.97-.48-.26-.14-.53-.27-.79-.42-.3-.17-.6-.33-.9-.51-.28-.16-.55-.32-.83-.49,0,0-.01,0-.02,0-.51-.3-1-.62-1.49-.95-.04-.02-.08-.05-.11-.08-.26-.18-.52-.36-.78-.54-.26-.18-.52-.37-.77-.56-.26-.19-.51-.38-.76-.58-.21-.16-.41-.32-.61-.49-.32-.26-.64-.53-.96-.8-.21-.18-.42-.37-.62-.55h0c-.24-.22-.47-.43-.7-.66-.23-.22-.46-.44-.69-.67-.44-.44-.87-.89-1.29-1.35-.22-.25-.45-.5-.66-.75-.42-.48-.82-.96-1.21-1.46-.24-.3-.47-.61-.7-.92-.14-.18-.27-.36-.4-.55-.04-.06-.09-.12-.13-.18-.16-.23-.32-.46-.48-.69-.16-.23-.3-.45-.45-.68-.21-.32-.42-.65-.62-.98-.32-.53-.63-1.07-.93-1.62-.58-1.05-1.1-2.14-1.58-3.26-.11-.26-.22-.51-.32-.77,0,0,0-.02-.01-.04-.08-.2-.16-.39-.23-.58-.07-.18-.14-.36-.21-.54-.07-.19-.14-.38-.2-.57-.1-.27-.19-.54-.28-.81-.09-.27-.18-.55-.26-.83-.01-.02-.02-.05-.02-.08-.08-.26-.16-.54-.24-.81-.08-.29-.16-.58-.24-.87-.22-.88-.42-1.77-.58-2.66-.05-.3-.1-.6-.15-.9-.05-.3-.09-.6-.13-.91-3.12-1.08-6.04-2.6-8.69-4.47.45,26.21,21.84,47.32,48.16,47.32s48.17-21.56,48.17-48.17-21.18-47.78-47.45-48.16ZM740.08,63.61c.03-.29.06-.59.09-.88.03-.29.07-.59.11-.88.04-.29.08-.58.13-.87.04-.29.1-.58.15-.86.22-1.15.48-2.29.79-3.4.07-.27.16-.55.24-.83h0c.06-.22.13-.43.2-.65.02-.09.05-.19.09-.27.08-.24.16-.48.25-.72.07-.21.14-.42.23-.63.05-.13.1-.26.15-.39.18-.47.36-.92.55-1.38.23-.53.46-1.06.72-1.58.12-.25.24-.5.36-.74.07-.16.16-.31.24-.47.09-.19.19-.37.29-.55.03-.06.07-.13.11-.19.13-.25.27-.49.41-.74.13-.22.26-.44.38-.66.12-.19.23-.38.35-.56.11-.17.22-.34.33-.52.46-.71.94-1.41,1.44-2.08.17-.23.34-.45.51-.68.13-.17.26-.34.4-.51.4-.5.81-1,1.24-1.48.17-.2.35-.4.53-.59.38-.42.77-.82,1.17-1.22.16-.16.32-.32.49-.48.26-.25.51-.5.77-.73.19-.18.38-.35.58-.52.35-.31.71-.61,1.06-.91.18-.15.37-.3.55-.45.8-.64,1.63-1.25,2.48-1.82.24-.17.49-.33.74-.49.2-.13.39-.25.59-.37.15-.09.3-.19.45-.27.22-.14.44-.27.67-.39.28-.17.56-.32.84-.47.28-.16.57-.31.85-.45.28-.15.57-.29.86-.43.02,0,.03-.01.05-.02.51-.25,1.03-.48,1.55-.71.39-.17.78-.33,1.18-.48.26-.11.52-.21.79-.3.23-.09.47-.17.7-.25.12-.04.24-.08.36-.13.26-.08.52-.17.78-.25.31-.1.62-.19.94-.28.31-.09.63-.18.95-.26.28-.07.56-.14.84-.21.21-.05.43-.1.64-.14.09-.02.19-.04.28-.06.16-.03.32-.06.49-.1.28-.05.57-.11.85-.16.21-.03.41-.07.61-.1.22-.04.43-.07.65-.1.56-.08,1.12-.15,1.69-.2-1.4-2.85-3.31-5.42-5.59-7.6-19.04,3.81-34.03,18.83-37.77,37.89,2.18,2.28,4.75,4.17,7.61,5.57Z"/>
    <path class="cls-1" d="M786.33,33.09c-2.14-.41-4.34-.63-6.6-.63-.7,0-1.4.02-2.08.06.61,2.24.94,4.6.94,7.02,0,14.76-12.01,26.77-26.77,26.77-2.4,0-4.73-.32-6.94-.92h0c-.03.66-.05,1.31-.05,1.98,0,2.29.22,4.53.65,6.7,2.06.38,4.18.57,6.36.57,19.39,0,35.11-15.72,35.11-35.11,0-2.21-.21-4.36-.59-6.46ZM751.81,4.43c-19.39,0-35.11,15.72-35.11,35.11,0,9.58,3.84,18.26,10.05,24.59.23-3.83.86-7.58,1.88-11.2-2.29-3.94-3.59-8.52-3.59-13.39,0-14.76,12.01-26.77,26.77-26.77,4.85,0,9.41,1.29,13.33,3.56,3.62-1.03,7.36-1.67,11.19-1.91-6.32-6.18-14.98-9.99-24.52-9.99Z"/>
  </g>
</svg>